<svg xmlns="http://www.w3.org/2000/svg" xmlns:xlink="http://www.w3.org/1999/xlink" viewBox="0 0 6999.86 2984.87"><defs><style>.cls-1{isolation:isolate;}.cls-2{fill:url(#Dťgradť_sans_nom_13);}.cls-3{opacity:0.39;fill:url(#Dťgradť_sans_nom_2);}.cls-3,.cls-4,.cls-5{mix-blend-mode:overlay;}.cls-4{opacity:0.44;fill:url(#Dťgradť_sans_nom_1423);}.cls-5{opacity:0.47;fill:url(#Dťgradť_sans_nom_1397);}</style><linearGradient id="Dťgradť_sans_nom_13" x1="3530.45" y1="-352.54" x2="3470.75" y2="3109.73" gradientUnits="userSpaceOnUse"><stop offset="0" stop-color="#68d7e7"/><stop offset="0.29" stop-color="#71dce5"/><stop offset="0.77" stop-color="#8be9e0"/><stop offset="1" stop-color="#99f0dd"/></linearGradient><linearGradient id="Dťgradť_sans_nom_2" x1="3499.93" y1="-154.37" x2="3499.93" y2="2269.24" gradientUnits="userSpaceOnUse"><stop offset="0"/><stop offset="1" stop-color="#ebfabc"/></linearGradient><linearGradient id="Dťgradť_sans_nom_1423" x1="3950.42" y1="-598.83" x2="2948.59" y2="4038.5" gradientUnits="userSpaceOnUse"><stop offset="0" stop-color="#fdfff0"/><stop offset="1" stop-color="#211400"/></linearGradient><radialGradient id="Dťgradť_sans_nom_1397" cx="3804.6" cy="519.02" r="5511.72" gradientUnits="userSpaceOnUse"><stop offset="0" stop-color="#ffffc2"/><stop offset="1" stop-color="#4f4900"/></radialGradient></defs><g class="cls-1"><g id="landscape"><g id="sky"><polygon class="cls-2" points="0 0 0 2984.87 6997.27 2984.87 6997.27 2135.39 6999.85 2135.39 6999.85 0 0 0"/><polygon class="cls-3" points="0 0 0 2984.87 6997.27 2984.87 6997.27 2135.39 6999.85 2135.39 6999.85 0 0 0"/></g><g id="color"><polygon class="cls-4" points="0 0 0 2984.87 6997.27 2984.87 6997.27 2135.39 6999.85 2135.39 6999.85 0 0 0"/><polygon class="cls-5" points="0 0 0 2984.87 6997.27 2984.87 6997.27 2135.39 6999.85 2135.39 6999.85 0 0 0"/></g></g></g></svg>